<?xml version="1.0" encoding="iso-8859-1"?>
<!-- Uploaded to: SVG Repo, www.svgrepo.com, Generator: SVG Repo Mixer Tools -->
<svg height="800px" width="800px" version="1.1" id="Layer_1" xmlns="http://www.w3.org/2000/svg" xmlns:xlink="http://www.w3.org/1999/xlink" 
	 viewBox="0 0 511.997 511.997" xml:space="preserve">
<g>
	<g>
		<path style="fill:#2F7F42;" d="M112.27,511.997c-1.509,0-3.045-0.377-4.446-1.186c-4.312-2.461-5.812-7.949-3.341-12.252
			l34.475-60.335l-8.659-77.941c-0.332-2.991,0.862-5.955,3.171-7.887l53.895-44.912c3.836-3.18,9.476-2.659,12.665,1.15
			c3.171,3.809,2.65,9.477-1.15,12.647l-50.185,41.822l8.444,76.045c0.216,1.886-0.18,3.8-1.132,5.443l-35.93,62.877
			C118.423,510.371,115.396,511.997,112.27,511.997"/>
		<path style="fill:#2F7F42;" d="M193.121,206.598c-1.051,0-2.111-0.189-3.162-0.575l-71.86-26.947
			c-3-1.123-5.174-3.773-5.695-6.934l-7.734-46.385H76.35c-4.967,0-8.982-4.024-8.982-8.982c0-4.967,4.015-8.982,8.982-8.982h35.93
			c4.392,0,8.138,3.171,8.857,7.5l8.138,48.784l67.009,25.124c4.635,1.743,6.988,6.917,5.255,11.569
			C200.182,204.371,196.75,206.598,193.121,206.598"/>
		<path style="fill:#2F7F42;" d="M85.341,323.366c-2.578,0-5.129-1.105-6.916-3.234c-3.171-3.809-2.65-9.477,1.15-12.647
			l53.895-44.912c1.617-1.347,3.656-2.084,5.758-2.084h53.895c4.967,0,8.982,4.024,8.982,8.982c0,4.958-4.015,8.982-8.982,8.982
			h-50.643L91.09,321.282C89.401,322.683,87.371,323.366,85.341,323.366"/>
		<path style="fill:#2F7F42;" d="M399.727,511.997c-3.126,0-6.153-1.626-7.806-4.527l-35.93-62.877
			c-0.952-1.644-1.347-3.557-1.132-5.443l8.444-76.045l-50.185-41.822c-3.8-3.171-4.321-8.839-1.15-12.647
			c3.189-3.809,8.839-4.33,12.665-1.15l53.895,44.912c2.309,1.931,3.503,4.895,3.171,7.887l-8.659,77.941l34.475,60.335
			c2.47,4.303,0.97,9.791-3.341,12.252C402.772,511.62,401.236,511.997,399.727,511.997"/>
		<path style="fill:#2F7F42;" d="M318.876,206.598c-3.629,0-7.06-2.228-8.417-5.83c-1.734-4.653,0.62-9.827,5.255-11.569
			l67.009-25.124l8.138-48.784c0.719-4.33,4.464-7.5,8.857-7.5h35.93c4.967,0,8.982,4.015,8.982,8.982
			c0,4.958-4.015,8.982-8.982,8.982h-28.322l-7.734,46.385c-0.521,3.162-2.695,5.812-5.695,6.934l-71.86,26.947
			C320.987,206.41,319.927,206.598,318.876,206.598"/>
		<path style="fill:#2F7F42;" d="M426.656,323.366c-2.03,0-4.06-0.683-5.749-2.084l-51.389-42.828h-50.643
			c-4.967,0-8.982-4.024-8.982-8.982c0-4.958,4.015-8.982,8.982-8.982h53.895c2.102,0,4.141,0.737,5.758,2.084l53.895,44.912
			c3.8,3.171,4.321,8.839,1.15,12.647C431.785,322.261,429.234,323.366,426.656,323.366"/>
	</g>
	<g>
		<path style="fill:#3B9B54;" d="M238.025,98.879c-4.482,0-8.354-3.35-8.911-7.896c-0.09-0.746-9.854-73.009-42.927-73.009
			c-0.485,0-0.979,0.009-1.473,0.045c-5.21,0.278-9.225-3.44-9.539-8.39c-0.314-4.949,3.44-9.216,8.39-9.539
			C184.516,0.027,185.45,0,186.376,0c49.269,0,60.129,85.127,60.578,88.819c0.593,4.922-2.91,9.396-7.842,9.988
			C238.752,98.861,238.384,98.879,238.025,98.879"/>
		<path style="fill:#3B9B54;" d="M273.973,98.879c-0.359,0-0.719-0.018-1.087-0.063c-4.922-0.593-8.435-5.075-7.842-9.997
			C265.493,85.127,276.362,0,325.622,0c0.925,0,1.859,0.027,2.811,0.09c4.949,0.323,8.704,4.59,8.39,9.539
			c-0.323,4.949-4.446,8.686-9.539,8.39c-0.494-0.027-0.997-0.045-1.482-0.045c-33.163,0-42.828,72.264-42.918,73
			C282.335,95.528,278.455,98.879,273.973,98.879"/>
	</g>
	<path style="fill:#4FBA6F;" d="M247.016,511.997c0,0-53.895-72.982-53.895-179.649V197.611c0,0-2.803-24.145,17.965-44.912h44.912
		v359.298H247.016z"/>
	<path style="fill:#3B9B54;" d="M264.981,511.997c0,0,53.895-72.982,53.895-179.649V197.611c0,0,2.803-24.145-17.965-44.912h-44.912
		v359.298H264.981z"/>
	<path style="fill:#2F7F42;" d="M300.911,152.699h-89.825l4.662-37.25c2.47-19.77,19.276-34.609,39.199-34.609h2.102
		c19.923,0,36.729,14.839,39.199,34.609L300.911,152.699z"/>
</g>
</svg>